<svg width="15" height="14" viewBox="0 0 15 14" fill="none" xmlns="http://www.w3.org/2000/svg">
<path d="M7.5 3.40625C8.125 3.40625 8.71875 3.59375 9.28125 3.90625C9.84375 4.21875 10.2812 4.65625 10.5938 5.21875C10.9062 5.78125 11.0938 6.375 11.0938 7C11.0938 7.65625 10.9062 8.25 10.5938 8.8125C10.2812 9.375 9.84375 9.8125 9.28125 10.125C8.71875 10.4375 8.125 10.5938 7.5 10.5938C6.84375 10.5938 6.25 10.4375 5.6875 10.125C5.125 9.8125 4.6875 9.375 4.375 8.8125C4.0625 8.25 3.90625 7.65625 3.90625 7C3.90625 6.375 4.0625 5.78125 4.375 5.21875C4.6875 4.65625 5.125 4.21875 5.6875 3.90625C6.25 3.59375 6.84375 3.40625 7.5 3.40625ZM7.5 9.34375C8.125 9.34375 8.6875 9.125 9.15625 8.65625C9.59375 8.21875 9.84375 7.65625 9.84375 7C9.84375 6.375 9.59375 5.8125 9.15625 5.34375C8.6875 4.90625 8.125 4.65625 7.5 4.65625C6.84375 4.65625 6.28125 4.90625 5.84375 5.34375C5.375 5.8125 5.15625 6.375 5.15625 7C5.15625 7.65625 5.375 8.21875 5.84375 8.65625C6.28125 9.125 6.84375 9.34375 7.5 9.34375ZM12.0938 3.25C12.0938 3.03125 12 2.84375 11.8438 2.65625C11.6562 2.5 11.4688 2.40625 11.25 2.40625C11 2.40625 10.8125 2.5 10.6562 2.65625C10.4688 2.84375 10.4062 3.03125 10.4062 3.25C10.4062 3.5 10.4688 3.6875 10.6562 3.84375C10.8125 4.03125 11 4.09375 11.25 4.09375C11.4688 4.09375 11.6562 4.03125 11.8125 3.84375C11.9688 3.6875 12.0625 3.5 12.0938 3.25ZM14.4688 4.09375C14.4688 4.6875 14.5 5.65625 14.5 7C14.5 8.375 14.4688 9.34375 14.4375 9.9375C14.4062 10.5312 14.3125 11.0312 14.1875 11.4688C14 12 13.6875 12.4688 13.3125 12.8438C12.9375 13.2188 12.4688 13.5 11.9688 13.6875C11.5312 13.8438 11 13.9375 10.4062 13.9688C9.8125 14 8.84375 14 7.5 14C6.125 14 5.15625 14 4.5625 13.9688C3.96875 13.9375 3.46875 13.8438 3.03125 13.6562C2.5 13.5 2.03125 13.2188 1.65625 12.8438C1.28125 12.4688 1 12 0.8125 11.4688C0.65625 11.0312 0.5625 10.5312 0.53125 9.9375C0.5 9.34375 0.5 8.375 0.5 7C0.5 5.65625 0.5 4.6875 0.53125 4.09375C0.5625 3.5 0.65625 2.96875 0.8125 2.53125C1 2.03125 1.28125 1.5625 1.65625 1.1875C2.03125 0.8125 2.5 0.5 3.03125 0.3125C3.46875 0.1875 3.96875 0.09375 4.5625 0.0625C5.15625 0.03125 6.125 0 7.5 0C8.84375 0 9.8125 0.03125 10.4062 0.0625C11 0.09375 11.5312 0.1875 11.9688 0.3125C12.4688 0.5 12.9375 0.8125 13.3125 1.1875C13.6875 1.5625 14 2.03125 14.1875 2.53125C14.3125 2.96875 14.4062 3.5 14.4688 4.09375ZM12.9688 11.125C13.0938 10.7812 13.1562 10.2188 13.2188 9.4375C13.2188 9 13.25 8.34375 13.25 7.5V6.5C13.25 5.65625 13.2188 5 13.2188 4.5625C13.1562 3.78125 13.0938 3.21875 12.9688 2.875C12.7188 2.25 12.25 1.78125 11.625 1.53125C11.2812 1.40625 10.7188 1.34375 9.9375 1.28125C9.46875 1.28125 8.8125 1.25 8 1.25H7C6.15625 1.25 5.5 1.28125 5.0625 1.28125C4.28125 1.34375 3.71875 1.40625 3.375 1.53125C2.71875 1.78125 2.28125 2.25 2.03125 2.875C1.90625 3.21875 1.8125 3.78125 1.78125 4.5625C1.75 5.03125 1.75 5.6875 1.75 6.5V7.5C1.75 8.34375 1.75 9 1.78125 9.4375C1.8125 10.2188 1.90625 10.7812 2.03125 11.125C2.28125 11.7812 2.75 12.2188 3.375 12.4688C3.71875 12.5938 4.28125 12.6875 5.0625 12.7188C5.5 12.75 6.15625 12.75 7 12.75H8C8.84375 12.75 9.5 12.75 9.9375 12.7188C10.7188 12.6875 11.2812 12.5938 11.625 12.4688C12.25 12.2188 12.7188 11.75 12.9688 11.125Z" fill="white"/>
</svg>
