<svg width="40" height="29" viewBox="0 0 40 29" fill="none" xmlns="http://www.w3.org/2000/svg">
<path d="M38.7413 4.77824C39.0304 6.07903 39.3194 8.10246 39.464 10.704L39.5362 14.3173L39.464 17.9306C39.3194 20.6767 39.0304 22.6279 38.7413 23.9286C38.4522 24.7958 38.0186 25.5185 37.4405 26.0966C36.7901 26.747 36.0675 27.1806 35.2003 27.3974C33.8995 27.7587 31.0089 27.9755 26.3839 28.12L19.8077 28.1923L13.2315 28.12C8.60653 27.9755 5.64364 27.7587 4.41512 27.3974C3.54794 27.1806 2.75302 26.747 2.17489 26.0966C1.5245 25.5185 1.09091 24.7958 0.874109 23.9286C0.512781 22.6279 0.295984 20.6767 0.151453 17.9306L0.0791874 14.3173C0.0791874 13.3056 0.0791874 12.0771 0.151453 10.704C0.295984 8.10246 0.512781 6.07903 0.874109 4.77824C1.09091 3.91106 1.5245 3.1884 2.17489 2.53801C2.75302 1.95988 3.54794 1.52629 4.41512 1.23723C5.64364 0.948166 8.60653 0.659103 13.2315 0.514572L19.8077 0.442307L26.3839 0.514572C31.0089 0.659103 33.8995 0.948166 35.2003 1.23723C36.0675 1.52629 36.7901 1.95988 37.4405 2.53801C38.0186 3.1884 38.4522 3.91106 38.7413 4.77824ZM15.7608 20.2431L26.0948 14.3173L15.7608 8.46379V20.2431Z" fill="#FF0000" fill-opacity="0.8"/>
</svg>
